<svg xmlns="http://www.w3.org/2000/svg" viewBox="0 0 140.7 57.1"><defs><style>.cls-1{fill:#040506;}.cls-2{fill:#7bba49;}</style></defs><g id="Layer_2" data-name="Layer 2"><g id="Layer_1-2" data-name="Layer 1"><g id="Ebene_5" data-name="Ebene 5"><path class="cls-1" d="M8.9,40.5a4.31,4.31,0,0,0-2.5-3.9V29.8H19.3c9.2,0,15.2-5.3,15.2-13.5,0-8.4-6-13.8-15.2-13.8H8.3A4.31,4.31,0,0,0,4.4,0,4.44,4.44,0,0,0,0,4.4,4.37,4.37,0,0,0,4.4,8.8,4.31,4.31,0,0,0,8.3,6.3h11c7,0,11.2,3.7,11.2,9.9,0,6-4.2,9.6-11.2,9.6H2.5V36.6A4.48,4.48,0,0,0,0,40.5a4.45,4.45,0,0,0,8.9,0Z"/><path class="cls-2" d="M19.2,48.8V20.2a4.48,4.48,0,0,0,2.5-3.9,4.37,4.37,0,0,0-4.4-4.4,4.44,4.44,0,0,0-4.4,4.4,4.31,4.31,0,0,0,2.5,3.9V48.8a4.31,4.31,0,0,0-2.5,3.9,4.4,4.4,0,1,0,8.8,0A4.31,4.31,0,0,0,19.2,48.8Zm-2-30.7a2,2,0,0,1-2-2,1.92,1.92,0,0,1,2-1.9,1.84,1.84,0,0,1,1.9,1.9A1.86,1.86,0,0,1,17.2,18.1Z"/><path class="cls-1" d="M54.8,8.9h3a4.44,4.44,0,0,1,1.3.2,1.24,1.24,0,0,1,.8.6,3,3,0,0,1,.4.8,2.49,2.49,0,0,1,.1.8,2.2,2.2,0,0,1-.1.8,3,3,0,0,1-.4.8,5.55,5.55,0,0,1-.8.6,2.55,2.55,0,0,1-1.3.2H56v3.7H54.8Zm1.1,3.7h1.5a2,2,0,0,0,.7-.1,1.42,1.42,0,0,0,.6-.2.78.78,0,0,0,.4-.4,1.33,1.33,0,0,0,0-1.4.78.78,0,0,0-.4-.4,1.42,1.42,0,0,0-.6-.2c-.2,0-.4-.1-.7-.1H55.9Z"/><path class="cls-1" d="M64.2,8.9h3a4.44,4.44,0,0,1,1.3.2,1.24,1.24,0,0,1,.8.6,2,2,0,0,1,.4.8,2.49,2.49,0,0,1,.1.8,2.2,2.2,0,0,1-.1.8,2.51,2.51,0,0,1-.4.7,1.79,1.79,0,0,1-.7.5l-.9.3,2.4,3.8H68.7l-2.2-3.7H65.2v3.7H64V8.9Zm1.1,3.7h1.5a2,2,0,0,0,.7-.1,4.17,4.17,0,0,0,.6-.2.78.78,0,0,0,.4-.4,1.33,1.33,0,0,0,0-1.4.78.78,0,0,0-.4-.4,1.42,1.42,0,0,0-.6-.2c-.2,0-.4-.1-.7-.1H65.3Z"/><path class="cls-1" d="M76.4,8.9h1L81,17.3H79.7l-.9-2.1H74.7l-.8,2.1H72.6Zm2.1,5.3-1.6-3.9h0l-1.6,3.9Z"/><path class="cls-1" d="M91.7,12.6v4.1a4.88,4.88,0,0,1-.7.3,2.35,2.35,0,0,1-.8.2,2.77,2.77,0,0,1-.9.1h-.8a3.81,3.81,0,0,1-1.9-.4,3.59,3.59,0,0,1-1.4-1,4.19,4.19,0,0,1-.9-1.4,5,5,0,0,1,0-3.4,3.92,3.92,0,0,1,2.3-2.3,4.84,4.84,0,0,1,1.8-.3,5,5,0,0,1,1.9.3,5.67,5.67,0,0,1,1.3.8l-.8.9a3.38,3.38,0,0,0-1.1-.7,5,5,0,0,0-1.2-.2,2.77,2.77,0,0,0-1.3.3,3.59,3.59,0,0,0-1,.7,4.13,4.13,0,0,0-.7,1.1,2.74,2.74,0,0,0-.2,1.3,2.77,2.77,0,0,0,.3,1.3,4.13,4.13,0,0,0,.7,1.1,3.59,3.59,0,0,0,1,.7,2.77,2.77,0,0,0,1.3.3,4.87,4.87,0,0,0,1.2-.1,4.65,4.65,0,0,0,.9-.3V13.7H88.8V12.6Z"/><path class="cls-1" d="M96,8.9h1.7l2.7,6.4h0l2.7-6.4h1.7v8.4h-1.2V10.4h0l-2.9,6.9h-.8L97,10.4h0v6.9H95.8V8.9Z"/><path class="cls-1" d="M111.9,8.9h1l3.6,8.4h-1.3l-.9-2.1h-4.1l-.8,2.1h-1.3Zm2.1,5.3-1.6-3.9h0l-1.6,3.9Z"/><path class="cls-1" d="M120.6,9.9h-2.7V8.8h6.6V9.9h-2.7v7.3h-1.2Z"/><path class="cls-1" d="M128,8.9h1.2v8.4H128Z"/><path class="cls-1" d="M139.5,10.7a2.18,2.18,0,0,0-.9-.7,2.34,2.34,0,0,0-1.1-.2,2.77,2.77,0,0,0-1.3.3,3.59,3.59,0,0,0-1,.7,2.38,2.38,0,0,0-.6,1.1,5.85,5.85,0,0,0-.2,1.3,5.85,5.85,0,0,0,.2,1.3,3.33,3.33,0,0,0,.6,1,2.55,2.55,0,0,0,1,.7,3,3,0,0,0,2.6,0,2.36,2.36,0,0,0,.9-.8l1,.7a1.38,1.38,0,0,0-.3.4c-.2.2-.4.3-.6.5a3,3,0,0,1-1,.4,5.07,5.07,0,0,1-1.3.2,3.42,3.42,0,0,1-1.8-.4,7.1,7.1,0,0,1-1.4-1,4.19,4.19,0,0,1-.9-1.4,4.15,4.15,0,0,1-.3-1.6,5.23,5.23,0,0,1,.3-1.8,3.39,3.39,0,0,1,.9-1.4,4.19,4.19,0,0,1,1.4-.9,4.84,4.84,0,0,1,1.8-.3,5.08,5.08,0,0,1,1.7.3,2.56,2.56,0,0,1,1.3,1Z"/><path class="cls-2" d="M54.9,23.1h1.9v8.4H54.9Z"/><path class="cls-2" d="M60.2,23.1h2.6l3.6,5.8h0V23.1h1.9v8.4H65.8l-3.7-6h0v6H60.2V23.1Z"/><path class="cls-2" d="M71.8,23.1h2.8a11.08,11.08,0,0,1,1.9.2,3.9,3.9,0,0,1,1.6.7,3.48,3.48,0,0,1,1.1,1.3,4,4,0,0,1,.4,2,3.42,3.42,0,0,1-.4,1.8,3.48,3.48,0,0,1-1.1,1.3,10.93,10.93,0,0,1-1.5.8,5.66,5.66,0,0,1-1.8.3H71.7V23.1Zm1.9,6.7h1a4.87,4.87,0,0,0,1.2-.1,3,3,0,0,0,1-.4,1.56,1.56,0,0,0,.6-.8,2.17,2.17,0,0,0,.2-1.2,3.59,3.59,0,0,0-.2-1.1,5.55,5.55,0,0,0-.6-.8A2.47,2.47,0,0,0,76,25a4.1,4.1,0,0,0-1.1-.1H73.8v4.9Z"/><path class="cls-2" d="M89.9,28.3a5.9,5.9,0,0,1-.2,1.4,4.13,4.13,0,0,1-.7,1.1,2.59,2.59,0,0,1-1.1.7,4.42,4.42,0,0,1-3.2,0,3,3,0,0,1-1.1-.7,4.13,4.13,0,0,1-.7-1.1,3.18,3.18,0,0,1-.2-1.4V23.1h1.9v5.1a1.48,1.48,0,0,0,.1.7,2.09,2.09,0,0,0,.4.6,1.76,1.76,0,0,0,.5.4,1.48,1.48,0,0,0,.7.1,1.7,1.7,0,0,0,.7-.1,1,1,0,0,0,.5-.4,2.09,2.09,0,0,0,.4-.6,1.7,1.7,0,0,0,.1-.7V23.1h1.9v5.2Z"/><path class="cls-2" d="M97.6,25.2a2.09,2.09,0,0,0-.6-.4,2,2,0,0,0-.7-.1h-.4c-.1,0-.3.1-.4.1l-.3.3c-.1.1-.1.2-.1.4a.71.71,0,0,0,.3.6,4.88,4.88,0,0,0,.7.3l.9.3a2.47,2.47,0,0,1,.9.4,2.34,2.34,0,0,1,.7.7,2.55,2.55,0,0,1,0,2.4,5.5,5.5,0,0,1-.7.9,4.67,4.67,0,0,1-1,.5,5.07,5.07,0,0,1-1.3.2,6.05,6.05,0,0,1-1.5-.2,3.53,3.53,0,0,1-1.3-.8l1.3-1.5a1.34,1.34,0,0,0,.7.6,2.92,2.92,0,0,0,.9.2.9.9,0,0,0,.5-.1.52.52,0,0,0,.4-.2l.3-.3c.1-.1.1-.2.1-.4a.6.6,0,0,0-.3-.6,4.35,4.35,0,0,0-.7-.4c-.3-.1-.6-.2-1-.3a4.18,4.18,0,0,1-1-.4,2.34,2.34,0,0,1-.7-.7,2,2,0,0,1-.3-1.1,2.38,2.38,0,0,1,.3-1.2,5.5,5.5,0,0,1,.7-.9,3.13,3.13,0,0,1,1-.5,5,5,0,0,1,1.2-.2,6.75,6.75,0,0,1,1.4.2,2.4,2.4,0,0,1,1.2.7Z"/><path class="cls-2" d="M103.7,24.8h-2.4V23.2H108v1.6h-2.4v6.8h-1.9V24.8Z"/><path class="cls-2" d="M110.7,23.1H114a4.87,4.87,0,0,1,1.2.1,3,3,0,0,1,1,.4,2.7,2.7,0,0,1,.7.8,2.13,2.13,0,0,1,.3,1.2,2.46,2.46,0,0,1-.5,1.5,2.19,2.19,0,0,1-1.4.8l2.2,3.6h-2.3l-1.8-3.4h-.8v3.4h-1.9Zm1.9,3.5h1.6a.75.75,0,0,0,.5-.1,1.38,1.38,0,0,0,.4-.3.76.76,0,0,0,.2-.5.75.75,0,0,0-.1-.5l-.3-.3a.75.75,0,0,0-.5-.1h-1.8Z"/><path class="cls-2" d="M120.2,23.1h1.9v8.4h-1.9Z"/><path class="cls-2" d="M125.6,23.1h5.8v1.7h-3.9v1.6h3.7v1.7h-3.7v1.7h4.1v1.7h-6V23.1Z"/><path class="cls-2" d="M139.1,25.2a2.09,2.09,0,0,0-.6-.4,2,2,0,0,0-.7-.1h-.4c-.1,0-.3.1-.4.1l-.3.3c-.1.1-.1.2-.1.4a.71.71,0,0,0,.3.6c.2.2.4.2.7.3l.9.3a2.47,2.47,0,0,1,.9.4,2.34,2.34,0,0,1,.7.7,2.55,2.55,0,0,1,0,2.4,5.5,5.5,0,0,1-.7.9,4.67,4.67,0,0,1-1,.5,5.07,5.07,0,0,1-1.3.2,6.05,6.05,0,0,1-1.5-.2,3.53,3.53,0,0,1-1.3-.8l1.3-1.5a1.34,1.34,0,0,0,.7.6,2.92,2.92,0,0,0,.9.2.9.9,0,0,0,.5-.1.52.52,0,0,0,.4-.2l.3-.3c.1-.1.1-.2.1-.4a.6.6,0,0,0-.3-.6,4.35,4.35,0,0,0-.7-.4c-.3-.1-.6-.2-1-.3a4.18,4.18,0,0,1-1-.4,2.34,2.34,0,0,1-.7-.7,2,2,0,0,1-.3-1.1,2.38,2.38,0,0,1,.3-1.2,2.55,2.55,0,0,1,1.7-1.4,5,5,0,0,1,1.2-.2,6.75,6.75,0,0,1,1.4.2,2.92,2.92,0,0,1,1.2.7Z"/><path class="cls-1" d="M107.1,41.1v4.2a4.88,4.88,0,0,1-.7.3,2.35,2.35,0,0,1-.8.2,2.77,2.77,0,0,1-.9.1h-.8a3.81,3.81,0,0,1-1.9-.4,3.59,3.59,0,0,1-1.4-1,4.19,4.19,0,0,1-.9-1.4,5,5,0,0,1,0-3.4,3.92,3.92,0,0,1,2.3-2.3,4.84,4.84,0,0,1,1.8-.3,5,5,0,0,1,1.9.3,5.67,5.67,0,0,1,1.3.8l-.8.9a3.38,3.38,0,0,0-1.1-.7,5,5,0,0,0-1.2-.2,2.77,2.77,0,0,0-1.3.3,3.59,3.59,0,0,0-1,.7,2.38,2.38,0,0,0-.6,1.1,3.51,3.51,0,0,0,.1,2.6,4.13,4.13,0,0,0,.7,1.1,3.59,3.59,0,0,0,1,.7,2.77,2.77,0,0,0,1.3.3,4.87,4.87,0,0,0,1.2-.1,4.65,4.65,0,0,0,.9-.3V42.3h-1.9V41.2h2.8Z"/><path class="cls-1" d="M110.9,37.4h1.7l2.7,6.4h0l2.7-6.4h1.7v8.4h-1.2V38.9h0l-2.9,6.9h-.8l-2.9-6.9h0v6.9h-1.2V37.4Z"/><path class="cls-1" d="M123.7,37.4h3a3.08,3.08,0,0,1,1,.1,2,2,0,0,1,.8.4,1.79,1.79,0,0,1,.5.7,2.92,2.92,0,0,1,.2.9,1.59,1.59,0,0,1-.4,1.2,3,3,0,0,1-1.1.7h0a1.45,1.45,0,0,1,.7.2,2.65,2.65,0,0,1,.6.5,2.09,2.09,0,0,1,.4.6,2,2,0,0,1,.1.8,3,3,0,0,1-.2,1,4.35,4.35,0,0,1-.6.7,4.61,4.61,0,0,1-1,.5,5,5,0,0,1-1.2.2h-2.9V37.4Zm1.2,3.5h1.6a1.27,1.27,0,0,0,.6-.1.76.76,0,0,0,.5-.2c.1-.1.3-.2.3-.4a1.27,1.27,0,0,0,.1-.6,1.61,1.61,0,0,0-.3-.9,1.53,1.53,0,0,0-1-.4h-1.8v2.6Zm0,3.9h1.7a1.27,1.27,0,0,0,.6-.1,1.42,1.42,0,0,0,.6-.2c.2-.1.3-.3.5-.4a1.45,1.45,0,0,0,.2-.7,1.29,1.29,0,0,0-.5-1.1,2.5,2.5,0,0,0-1.3-.4H125v2.9Z"/><path class="cls-1" d="M133.1,37.4h1.2v3.5h4.4V37.4h1.2v8.4h-1.2V41.9h-4.4v3.9h-1.2Z"/></g></g></g></svg>